<?xml version="1.0" encoding="UTF-8" standalone="no"?>
<!-- Created with Inkscape (http://www.inkscape.org/) -->

<svg
   width="511.36035"
   height="511.41522"
   viewBox="0 0 511.36035 511.41522"
   version="1.1"
   id="svg1"
   xml:space="preserve"
   xmlns:inkscape="http://www.inkscape.org/namespaces/inkscape"
   xmlns:sodipodi="http://sodipodi.sourceforge.net/DTD/sodipodi-0.dtd"
   xmlns="http://www.w3.org/2000/svg"
   xmlns:svg="http://www.w3.org/2000/svg"><sodipodi:namedview
     id="namedview1"
     pagecolor="#ffffff"
     bordercolor="#000000"
     borderopacity="0.25"
     inkscape:showpageshadow="2"
     inkscape:pageopacity="0.0"
     inkscape:pagecheckerboard="0"
     inkscape:deskcolor="#d1d1d1"
     inkscape:document-units="px" /><defs
     id="defs1" /><g
     inkscape:label="Layer 1"
     inkscape:groupmode="layer"
     id="layer1"
     transform="translate(-0.63964099)"><path
       style="fill:#ffffff"
       d="M 30.49144,510.07508 C 16.15495,506.22478 5.7429092,495.62251 2.0175392,481.08097 0.63909916,475.7004 0.49813916,450.73126 0.73049916,253.10562 l 0.26094,-221.932985 2.26436004,-5.5 C 8.0664492,13.987847 17.89322,4.8466105 29.16022,1.5753375 c 7.23442,-2.10045001 447.42801,-2.10045001 454.66243,0 11.26701,3.271273 21.09377,12.4125095 25.90442,24.0972975 l 2.26436,5.5 V 254.67264 c 0,246.94689 0.52277,228.01312 -6.5998,239.03312 -4.28287,6.62643 -10.79775,11.86672 -18.9002,15.20252 l -5.5,2.26436 -222.5,0.18978 c -193.50999,0.16505 -223.2166,-0.003 -227.99999,-1.28734 z m 248.49999,-121.9237 c 33.6268,-6.90829 57.96899,-29.75169 66.69152,-62.58524 2.22274,-8.36686 2.23085,-8.70528 2.55617,-106.6435 l 0.32635,-98.25 h -31.99966 -31.99965 l -0.30726,97.25 c -0.34109,107.9553 0.0394,101.87112 -7.02679,112.3642 -4.79572,7.12151 -11.60842,10.3858 -21.67556,10.3858 -6.42447,0 -8.60952,-0.45748 -13.13477,-2.75 -8.40834,-4.25972 -11.60269,-10.32386 -12.64227,-24 l -0.55109,-7.25 h -32.44809 -32.44809 l 0.64298,6.75 c 1.99797,20.97466 7.63232,36.14313 18.22896,49.07494 11.46973,13.99729 33.39839,24.46075 56.89207,27.14657 10.67349,1.22021 29.13917,0.5115 38.89518,-1.49277 z"
       id="path1"
       inkscape:export-filename="logo.svg"
       inkscape:export-xdpi="96"
       inkscape:export-ydpi="96" /></g></svg>
